#!OML:ASF F:\VICON\USERDATA\Patient Classification 1\PLAYGROUND\JustinFriday\JustinFriday.ASF
:FULLY-SPECIFIED
:DEGREES
2853
root 30.9373 17.956 28.0515 181.713 21.018 -169.702
lowerback 9.19035 1.25907 4.98346
upperback 3.61117 2.89264 6.22612
thorax -1.49463 1.71734 3.36376
lowerneck -10.0131 -2.89839 -11.6504
upperneck 19.0484 -2.31218 5.01686
head 7.74149 -1.25393 3.40209
rclavicle -4.50247e-014 7.15625e-014
rhumerus -22.6318 -1.40373 -78.4234
rradius 29.8593
rwrist -12.5117
rhand -18.5621 -22.4319
rfingers 7.12502
rthumb 7.72782 -412.271
lclavicle -4.50247e-014 7.15625e-014
lhumerus -40.4228 20.2724 81.4627
lradius 26.4947
lwrist -1.80389
lhand -13.7107 -8.06413
lfingers 7.12502
lthumb 12.4081 21.5476
rfemur 13.2579 3.35395 34.4379
rtibia 9.57264
rfoot -13.7841 -3.84943
rtoes 18.9739
lfemur -28.1253 -0.471271 -5.03917
ltibia 23.8393
lfoot -10.5242 7.98911
ltoes 0.00558001
2854
root 30.9784 17.9292 27.9228 182.103 20.7268 -169.653
lowerback 9.08468 1.2042 5.18069
upperback 3.50806 2.79738 5.97583
thorax -1.51895 1.65753 3.00209
lowerneck -10.0912 -2.85571 -11.2759
upperneck 18.936 -2.33706 5.05868
head 7.71237 -1.23863 3.34908
rclavicle 1.21259e-014 3.18055e-014
rhumerus -22.3198 -1.63846 -78.8433
rradius 30.1285
rwrist -12.6276
rhand -18.5549 -22.5265
rfingers 7.12502
rthumb 7.73476 -412.365
lclavicle 1.21259e-014 3.18055e-014
lhumerus -40.3372 20.3519 81.0342
lradius 26.037
lwrist -2.02227
lhand -13.398 -7.91683
lfingers 7.12502
lthumb 12.7096 21.6764
rfemur 13.5318 3.07417 34.5022
rtibia 9.2744
rfoot -13.9473 -3.72417
rtoes 20.0127
lfemur -28.6302 -0.852101 -4.85008
ltibia 22.0714
lfoot -11.854 7.76184
ltoes -2.10176
2855
root 31.0075 17.9044 27.7141 181.965 21.8386 -169.62
lowerback 8.83897 1.54349 5.53668
upperback 3.77136 3.21549 5.69516
thorax -1.07996 1.87238 2.4857
lowerneck -10.0268 -2.83153 -10.9218
upperneck 18.6243 -2.4049 5.09299
head 7.59614 -1.24729 3.28977
rclavicle -5.23798e-014 -5.24792e-014
rhumerus -22.1362 -1.77488 -79.1077
rradius 30.475
rwrist -13.0226
rhand -18.3986 -22.5335
rfingers 7.12502
rthumb 7.88561 -412.366
lclavicle -5.23798e-014 -5.24792e-014
lhumerus -40.2912 20.3772 80.7644
lradius 25.5371
lwrist -2.27538
lhand -13.034 -7.74912
lfingers 7.12502
lthumb 13.0604 21.822
rfemur 14.4869 4.07619 34.3141
rtibia 9.42046
rfoot -14.8354 -3.48007
rtoes 21.8097
lfemur -27.854 -2.34631 -4.24212
ltibia 20.5864
lfoot -13.7902 9.94871
ltoes -6.01868
2856
root 31.043 17.8755 27.5423 182.198 22.0824 -169.51
lowerback 8.94394 1.67475 5.49964
upperback 3.53641 3.40299 5.75323
thorax -1.38878 1.95271 2.53732
lowerneck -9.72448 -2.80108 -10.8718
upperneck 18.4214 -2.39577 5.04727
head 7.47334 -1.24306 3.2654
rclavicle -5.06901e-014 -5.40694e-014
rhumerus -22.3719 -1.96068 -78.8917
rradius 30.6573
rwrist -12.4055
rhand -17.1146 -21.7433
rfingers 7.12502
rthumb 9.12473 -411.526
lclavicle -5.06901e-014 -5.40694e-014
lhumerus -40.7617 20.742 80.5672
lradius 25.019
lwrist -2.99616
lhand -12.5806 -7.39341
lfingers 7.12502
lthumb 13.4974 22.1492
rfemur 14.7762 4.29473 34.3306
rtibia 9.72346
rfoot -15.0591 -3.64184
rtoes 20.4153
lfemur -27.9101 -2.84753 -3.97196
ltibia 19.3677
lfoot -14.8104 10.6567
ltoes -9.1379
2857
root 31.0784 17.8596 27.3867 182.514 22.0562 -169.555
lowerback 9.02388 1.72491 5.41097
upperback 3.19846 3.4631 5.7027
thorax -1.78639 1.96006 2.51461
lowerneck -9.59188 -2.79835 -10.7215
upperneck 18.5635 -2.39936 4.95751
head 7.4936 -1.2391 3.21367
rclavicle 3.96575e-014 -4.29375e-014
rhumerus -22.7733 -1.38692 -79.0848
rradius 31.1691
rwrist -13.0531
rhand -17.6841 -22.5513
rfingers 7.12502
rthumb 8.57518 -412.357
lclavicle 3.96575e-014 -4.29375e-014
lhumerus -41.2757 21.0565 80.2013
lradius 24.5535
lwrist -3.71254
lhand -12.043 -7.1448
lfingers 7.12502
lthumb 14.0156 22.3627
rfemur 14.9569 4.27365 34.2308
rtibia 9.76901
rfoot -15.018 -3.8987
rtoes 16.635
lfemur -28.2135 -2.35409 -4.226
ltibia 18.5913
lfoot -15.7659 10.0414
ltoes -11.335
2858
root 31.112 17.8438 27.2265 182.553 22.1659 -169.775
lowerback 8.88142 1.7649 5.54032
upperback 3.24515 3.46479 5.32267
thorax -1.62643 1.95023 2.05446
lowerneck -9.80499 -2.79299 -10.1845
upperneck 18.6348 -2.4639 4.90954
head 7.54931 -1.2389 3.10223
rclavicle -3.3197e-014 3.18055e-015
rhumerus -22.5131 -1.33566 -79.6508
rradius 31.4339
rwrist -13.7077
rhand -18.1591 -22.8585
rfingers 7.12502
rthumb 8.11682 -412.683
lclavicle -3.3197e-014 3.18055e-015
lhumerus -41.0973 20.9451 79.8115
lradius 24.1092
lwrist -4.02272
lhand -11.3537 -7.19025
lfingers 7.12502
lthumb 14.6797 22.2701
rfemur 15.3399 4.33792 33.926
rtibia 9.93195
rfoot -15.0247 -4.02135
rtoes 14.7566
lfemur -28.0689 -1.81826 -4.70112
ltibia 18.0471
lfoot -16.7017 9.14462
ltoes -13.5954
